<?xml version="1.0" encoding="utf-8"?>
<!-- Generator: Adobe Illustrator 25.2.3, SVG Export Plug-In . SVG Version: 6.00 Build 0)  -->
<svg version="1.1" id="Layer_1" xmlns="http://www.w3.org/2000/svg" xmlns:xlink="http://www.w3.org/1999/xlink" x="0px" y="0px"
	 viewBox="0 0 92.2 122.9" style="enable-background:new 0 0 92.2 122.9;" xml:space="preserve">
<style type="text/css">
	.st0{fill-rule:evenodd;clip-rule:evenodd;fill:#B5B436;stroke:#000000;stroke-miterlimit:10;}
</style>
<g>
	<path class="st0" d="M68.5,106.3c-5.6,6.1-12.1,11.6-19.4,16.1c-0.9,0.7-2.1,0.7-3.1,0.1c-10.8-6.9-19.9-15.1-27-24.1
		C9.1,86,3,72.3,0.8,59.2c-2.2-13.4-0.1-26.2,6.5-36.7c2.6-4.1,6-7.9,10-11.1C26.8,3.9,37.5-0.1,48.2,0c10.3,0.1,20.4,3.9,29.2,11.9
		c3.1,2.8,5.7,6,7.8,9.5c7.2,11.8,8.7,26.8,5.6,42C87.6,78.5,79.9,93.8,68.5,106.3L68.5,106.3L68.5,106.3z M46.1,23.8
		c12.7,0,23,10.3,23,22.9c0,12.7-10.3,23-23,23c-12.7,0-23-10.3-23-23C23.2,34,33.4,23.8,46.1,23.8L46.1,23.8z"/>
</g>
</svg>
